HIERARCHY
ROOT joint_Root
{
	OFFSET 0.0 0.0 0.0
	CHANNELS 6 Xposition Yposition Zposition Zrotation Xrotation Yrotation 
	JOINT Hips
	{
		OFFSET 4.5925 91.4895 -427.239
		CHANNELS 6 Xposition Yposition Zposition Zrotation Xrotation Yrotation 
		JOINT Spine
		{
			OFFSET 15.7357 0.0 0.0
			CHANNELS 6 Xposition Yposition Zposition Zrotation Xrotation Yrotation 
			JOINT Chest
			{
				OFFSET 8.98455 -0.406207 0.0
				CHANNELS 6 Xposition Yposition Zposition Zrotation Xrotation Yrotation 
				JOINT Neck
				{
					OFFSET 16.3773 0.0 0.0
					CHANNELS 6 Xposition Yposition Zposition Zrotation Xrotation Yrotation 
					JOINT Head
					{
						OFFSET 6.45672 0.0 0.0
						CHANNELS 6 Xposition Yposition Zposition Zrotation Xrotation Yrotation 
						End Site
						{
							OFFSET 0.0 0.0 0.0
						}
					}
				}
				JOINT Shoulder_L
				{
					OFFSET 12.9942 -0.242716 4.98039
					CHANNELS 6 Xposition Yposition Zposition Zrotation Xrotation Yrotation 
					JOINT UpperArm_L
					{
						OFFSET 5.34809 0.0 0.0
						CHANNELS 6 Xposition Yposition Zposition Zrotation Xrotation Yrotation 
						JOINT LowerArm_L
						{
							OFFSET 24.3286 1.87007e-05 0.0
							CHANNELS 6 Xposition Yposition Zposition Zrotation Xrotation Yrotation 
							JOINT Hand_L
							{
								OFFSET 22.2916 0.0 0.0
								CHANNELS 6 Xposition Yposition Zposition Zrotation Xrotation Yrotation 
								End Site
								{
									OFFSET 0.0 0.0 0.0
								}
							}
						}
					}
				}
				JOINT Shoulder_R
				{
					OFFSET 12.9945 -0.242716 -4.98039
					CHANNELS 6 Xposition Yposition Zposition Zrotation Xrotation Yrotation 
					JOINT UpperArm_R
					{
						OFFSET -5.34813 0.0 0.0
						CHANNELS 6 Xposition Yposition Zposition Zrotation Xrotation Yrotation 
						JOINT LowerArm_R
						{
							OFFSET -24.3289 0.000322201 0.0
							CHANNELS 6 Xposition Yposition Zposition Zrotation Xrotation Yrotation 
							JOINT Hand_R
							{
								OFFSET -22.2915 -0.000108084 0.0
								CHANNELS 6 Xposition Yposition Zposition Zrotation Xrotation Yrotation 
								End Site
								{
									OFFSET 0.0 0.0 0.0
								}
							}
						}
					}
				}
			}
		}
		JOINT UpperLeg_L
		{
			OFFSET -2.19248 -6.46944 0.0
			CHANNELS 6 Xposition Yposition Zposition Zrotation Xrotation Yrotation 
			JOINT LowerLeg_L
			{
				OFFSET 39.0811 0.0 -1.23785e-05
				CHANNELS 6 Xposition Yposition Zposition Zrotation Xrotation Yrotation 
				JOINT Foot_L
				{
					OFFSET 40.9854 0.0 -1.26872e-05
					CHANNELS 6 Xposition Yposition Zposition Zrotation Xrotation Yrotation 
					JOINT Toes_L
					{
						OFFSET 11.7543 0.0 0.0
						CHANNELS 6 Xposition Yposition Zposition Zrotation Xrotation Yrotation 
						End Site
						{
							OFFSET 0.0 0.0 0.0
						}
					}
				}
			}
		}
		JOINT UpperLeg_R
		{
			OFFSET -2.19251 6.46944 0.0
			CHANNELS 6 Xposition Yposition Zposition Zrotation Xrotation Yrotation 
			JOINT LowerLeg_R
			{
				OFFSET -39.0811 -0.00228153 -0.0401928
				CHANNELS 6 Xposition Yposition Zposition Zrotation Xrotation Yrotation 
				JOINT Foot_R
				{
					OFFSET -40.9854 0.0 0.0
					CHANNELS 6 Xposition Yposition Zposition Zrotation Xrotation Yrotation 
					JOINT Toes_R
					{
						OFFSET -11.7543 0.0 0.0
						CHANNELS 6 Xposition Yposition Zposition Zrotation Xrotation Yrotation 
						End Site
						{
							OFFSET 0.0 0.0 0.0
						}
					}
				}
			}
		}
	}
}
MOTION
Frames:	7
Frame Time:	0.0333333
0.000000 0.000000 0.000000 0.000000 0.000000 -0.000000 -8.398500 94.953500 123.116000 -87.183500 -10.436800 163.260000 15.735700 0.000005 -0.000001 33.855300 79.372000 -30.716600 8.984550 -0.406207 -0.000000 4.758030 -17.705400 7.050920 16.377300 -0.000001 -0.000001 1.848780 0.415611 1.374610 6.456720 -0.000001 -0.000000 -5.231010 9.879020 2.257470 12.994200 -0.242716 4.980390 -86.174200 -15.554200 -75.997400 5.348090 -0.000007 -0.000001 -66.564700 23.083500 -31.275100 24.328600 0.000019 0.000005 12.809200 -11.151900 -130.388000 22.291600 -0.000001 0.000005 -0.544579 5.413560 -3.383440 12.994500 -0.242716 -4.980390 94.698700 -11.432800 -67.482000 -5.348130 -0.000001 -0.000004 -72.418300 34.346900 43.194100 -24.328900 0.000322 -0.000009 1.998960 0.733340 -69.757400 -22.291500 -0.000108 -0.000004 7.212140 5.616380 -12.359100 -2.192480 -6.469440 -0.000000 -162.793000 -21.965700 10.978900 39.081100 -0.000007 -0.000012 0.106864 -0.287720 20.376000 40.985400 -0.000006 -0.000013 -8.434350 6.990280 -29.102700 11.754300 -0.000000 0.000003 -0.003240 -0.043298 -18.337700 -2.192510 6.469440 -0.000001 -176.058000 3.089300 120.976000 -39.081100 -0.002282 -0.040193 0.123479 -0.055250 65.335300 -40.985400 0.000008 0.000006 6.065590 1.949870 -66.349900 -11.754300 -0.000006 -0.000006 -0.012593 -0.122087 -21.550900
0.000000 0.000000 0.000000 0.000000 0.000000 -0.000000 -8.629520 95.783600 110.310000 -88.639000 -10.106900 163.825000 15.735700 0.000005 -0.000001 30.699700 79.102000 -27.790900 8.984550 -0.406207 -0.000000 4.033450 -18.812300 6.520260 16.377300 -0.000001 -0.000001 3.422510 0.569996 1.900730 6.456720 -0.000001 -0.000000 -4.933720 11.262100 0.851397 12.994200 -0.242716 4.980390 -85.595800 -16.818900 -75.094600 5.348090 -0.000007 -0.000001 -65.487900 26.269300 -29.323000 24.328600 0.000019 0.000005 12.890300 -11.272800 -130.504000 22.291600 -0.000001 0.000005 -0.353978 5.411390 -3.311190 12.994500 -0.242716 -4.980390 96.277500 -14.479500 -66.253300 -5.348130 -0.000001 -0.000004 -75.100100 34.752800 46.118300 -24.328900 0.000322 -0.000009 6.596900 1.614210 -76.296000 -22.291500 -0.000108 -0.000004 5.182660 5.598840 -11.264500 -2.192480 -6.469440 -0.000000 -160.892000 -21.336600 13.653800 39.081100 -0.000007 -0.000012 0.213274 -0.368661 30.050100 40.985400 -0.000006 -0.000013 -4.989530 1.144800 -29.552100 11.754300 -0.000000 0.000003 -0.002512 -0.034961 -17.998400 -2.192510 6.469440 -0.000001 -176.541000 5.087530 125.465000 -39.081100 -0.002282 -0.040193 0.054522 -0.043834 49.472000 -40.985400 0.000008 0.000006 4.797600 3.671940 -68.506100 -11.754300 -0.000006 -0.000006 -0.015173 -0.138904 -22.240600
0.000000 0.000000 0.000000 0.000000 0.000000 -0.000000 -8.768690 95.707500 97.454400 -90.488100 -10.012000 165.227000 15.735700 0.000005 -0.000001 30.836100 78.981600 -28.241400 8.984550 -0.406207 -0.000000 4.159670 -18.977800 5.916160 16.377300 -0.000001 -0.000001 3.611350 0.229586 2.135660 6.456720 -0.000001 -0.000000 -4.946150 11.241800 0.128619 12.994200 -0.242716 4.980390 -85.492300 -16.975400 -74.889300 5.348090 -0.000007 -0.000001 -65.129600 29.795000 -27.615700 24.328600 0.000019 0.000005 14.502800 -11.698800 -128.094000 22.291600 -0.000001 0.000005 -0.729448 5.408880 -3.228000 12.994500 -0.242716 -4.980390 96.477000 -14.360600 -65.404400 -5.348130 -0.000001 -0.000004 -74.108100 33.772800 46.939800 -24.328900 0.000322 -0.000009 7.331920 1.195190 -80.797400 -22.291500 -0.000108 -0.000004 4.515980 5.583960 -10.424600 -2.192480 -6.469440 -0.000000 -163.901000 -13.620900 15.298800 39.081100 -0.000007 -0.000012 0.316434 -0.369612 40.567900 40.985400 -0.000006 -0.000013 -0.469413 -2.338720 -29.821400 11.754300 -0.000000 0.000003 -0.002233 -0.031600 -17.861700 -2.192510 6.469440 -0.000001 -175.988000 9.090700 131.616000 -39.081100 -0.002282 -0.040193 0.002215 0.001671 32.900200 -40.985400 0.000008 0.000006 2.973970 5.822150 -71.188300 -11.754300 -0.000006 -0.000006 -0.017640 -0.153849 -22.854700
0.000000 0.000000 0.000000 0.000000 0.000000 -0.000000 -8.845190 94.620700 84.505500 -91.817300 -9.925890 167.186000 15.735700 0.000005 -0.000001 33.664300 78.990700 -31.179000 8.984550 -0.406207 -0.000000 5.055280 -18.351300 5.815060 16.377300 -0.000001 -0.000001 2.930190 -0.314656 2.451320 6.456720 -0.000001 -0.000000 -4.929520 10.645000 -0.556540 12.994200 -0.242716 4.980390 -85.978400 -16.340600 -75.970300 5.348090 -0.000007 -0.000001 -66.575200 32.199000 -24.117900 24.328600 0.000019 0.000005 16.208800 -11.611000 -124.696000 22.291600 -0.000001 0.000005 -1.232500 5.405240 -3.106630 12.994500 -0.242716 -4.980390 95.889500 -12.975000 -65.324600 -5.348130 -0.000001 -0.000004 -71.810300 32.058200 44.287500 -24.328900 0.000322 -0.000009 6.207120 0.939474 -81.430200 -22.291500 -0.000108 -0.000004 6.434080 5.589410 -10.716400 -2.192480 -6.469440 -0.000000 -166.317000 -7.712220 16.512400 39.081100 -0.000007 -0.000012 0.428885 -0.329930 52.430200 40.985400 -0.000006 -0.000013 -2.420650 -0.832018 -28.598800 11.754300 -0.000000 0.000003 -0.002084 -0.029769 -17.787300 -2.192510 6.469440 -0.000001 -172.566000 15.657500 137.039000 -39.081100 -0.002282 -0.040193 -0.008185 0.033770 18.818200 -40.985400 0.000008 0.000006 1.779130 8.510980 -74.258900 -11.754300 -0.000006 -0.000006 -0.020473 -0.169892 -23.515100
0.000000 0.000000 0.000000 0.000000 0.000000 -0.000000 -8.877150 92.668200 71.811700 -92.273900 -9.456320 167.989000 15.735700 0.000005 -0.000001 36.531700 79.455600 -33.838300 8.984550 -0.406207 -0.000000 5.383780 -16.967000 6.215130 16.377300 -0.000001 -0.000001 2.080720 -0.676911 2.696840 6.456720 -0.000001 -0.000000 -5.096870 9.652610 -0.935846 12.994200 -0.242716 4.980390 -86.688000 -14.537200 -77.017900 5.348090 -0.000007 -0.000001 -68.182600 33.723000 -20.152700 24.328600 0.000019 0.000005 17.357800 -10.433900 -120.089000 22.291600 -0.000001 0.000005 -0.383003 5.416500 -3.474460 12.994500 -0.242716 -4.980390 94.430500 -10.202700 -66.378600 -5.348130 -0.000001 -0.000004 -68.441500 29.839900 39.057700 -24.328900 0.000322 -0.000009 5.399170 1.007450 -79.462000 -22.291500 -0.000108 -0.000004 8.774510 5.600150 -11.352900 -2.192480 -6.469440 -0.000000 -168.187000 -3.801240 15.262800 39.081100 -0.000007 -0.000012 0.572438 -0.264440 65.205600 40.985400 -0.000006 -0.000013 -9.087840 -2.433560 -25.690700 11.754300 -0.000000 0.000003 -0.002602 -0.036023 -18.041700 -2.192510 6.469440 -0.000001 -167.276000 22.789200 137.914000 -39.081100 -0.002282 -0.040193 -0.016714 0.084623 13.327800 -40.985400 0.000008 0.000006 -1.746780 13.191800 -75.418100 -11.754300 -0.000006 -0.000006 -0.020228 -0.168550 -23.459800
0.000000 0.000000 0.000000 0.000000 0.000000 -0.000000 -8.964210 89.767600 59.350300 -92.777200 -8.598580 168.629000 15.735700 0.000005 -0.000001 40.443900 80.099600 -37.679000 8.984550 -0.406207 -0.000000 5.605410 -15.088300 6.291430 16.377300 -0.000001 -0.000001 0.408198 -1.108950 2.479650 6.456720 -0.000001 -0.000000 -4.605400 7.993720 -0.625042 12.994200 -0.242716 4.980390 -87.472000 -11.318700 -77.319700 5.348090 -0.000007 -0.000001 -68.026400 34.874600 -16.944000 24.328600 0.000019 0.000005 17.601700 -8.155010 -114.075000 22.291600 -0.000001 0.000005 3.283260 5.449990 -4.591060 12.994500 -0.242716 -4.980390 92.094500 -5.304780 -68.437100 -5.348130 -0.000001 -0.000004 -63.696000 27.645500 32.400800 -24.328900 0.000322 -0.000009 3.384250 0.816704 -76.448200 -22.291500 -0.000108 -0.000004 11.273000 5.605440 -11.660600 -2.192480 -6.469440 -0.000000 -171.294000 -1.373780 12.307100 39.081100 -0.000007 -0.000012 0.660883 -0.127803 79.054900 40.985400 -0.000006 -0.000013 -8.588840 -3.878860 -21.814400 11.754300 -0.000000 0.000003 -0.001902 -0.027489 -17.694500 -2.192510 6.469440 -0.000001 -167.456000 24.212700 138.762000 -39.081100 -0.002282 -0.040193 -0.014912 0.057003 17.741200 -40.985400 0.000008 0.000006 -2.260050 9.656020 -77.612800 -11.754300 -0.000006 -0.000006 -0.020428 -0.169646 -23.505000
0.000000 0.000000 0.000000 0.000000 0.000000 -0.000000 -8.833670 86.565400 48.549500 -90.754100 -6.356710 165.791000 15.735700 0.000005 -0.000001 44.529100 81.987000 -40.688500 8.984550 -0.406207 -0.000000 3.939520 -11.538200 8.091560 16.377300 -0.000001 -0.000001 -1.594660 -0.912651 1.550030 6.456720 -0.000001 -0.000000 -4.734620 5.824630 -0.556674 12.994200 -0.242716 4.980390 -88.707100 -5.287790 -76.236000 5.348090 -0.000007 -0.000001 -65.864700 35.619800 -14.829700 24.328600 0.000019 0.000005 12.865100 -3.209140 -103.718000 22.291600 -0.000001 0.000005 9.054000 5.516560 -7.206510 12.994500 -0.242716 -4.980390 89.354500 2.008940 -72.044600 -5.348130 -0.000001 -0.000004 -56.144600 25.308300 24.694700 -24.328900 0.000322 -0.000009 1.084380 0.297568 -74.685400 -22.291500 -0.000108 -0.000004 13.816500 5.611100 -12.059600 -2.192480 -6.469440 -0.000000 -172.225000 -3.075340 0.401841 39.081100 -0.000007 -0.000012 0.691570 0.087746 97.229800 40.985400 -0.000006 -0.000013 -3.230360 -6.518590 -16.440100 11.754300 -0.000000 0.000003 -0.000936 -0.014496 -17.166400 -2.192510 6.469440 -0.000001 -164.957000 19.127500 127.419000 -39.081100 -0.002282 -0.040193 0.606138 -0.779371 37.724300 -40.985400 0.000008 0.000006 10.392300 1.279900 -61.169700 -11.754300 -0.000006 -0.000006 -0.024490 -0.190999 -24.386200
